<?xml version="1.0" encoding="utf-8"?>
<!-- Generator: Adobe Illustrator 15.0.2, SVG Export Plug-In . SVG Version: 6.00 Build 0)  -->
<!DOCTYPE svg PUBLIC "-//W3C//DTD SVG 1.1//EN" "http://www.w3.org/Graphics/SVG/1.1/DTD/svg11.dtd">
<svg version="1.1" xmlns="http://www.w3.org/2000/svg" xmlns:xlink="http://www.w3.org/1999/xlink" x="0px" y="0px" width="800px"
	 height="600px" viewBox="0 0 800 600" enable-background="new 0 0 800 600" xml:space="preserve">
<g id="Mushroom">
	<path fill="#FCCE59" stroke="#999966" stroke-miterlimit="10" d="M556.5,220.323c0,3.964-5.373,7.177-12,7.177l-60-0.598
		c-6.627,0-6.833-2.938-6.833-6.902l7.996-16c0-1.839,4.128-7.963,1.337-13c-3.224-5.819-13.222-10.5-9.67-10.5h78
		c3.072,0-6.712,7.601-8.663,12.5c-2.257,5.669,1.333,11.208,1.333,13.333L556.5,220.323z"/>
	<path fill="#C40000" stroke="#A00404" stroke-miterlimit="10" d="M594.663,171.229c0,12.206-15.95,10.37-33.666,11.19
		c-11.471,0.531-30.504,9-45.692,9c-15.763,0-32.608-11.621-44.308-12.262c-16.983-0.93-32.334,3.978-32.334-7.929
		c0-20.108,37.995-65.729,76.642-65.729S594.663,151.121,594.663,171.229z"/>
	<ellipse fill="#FFFFFF" stroke="#FFFFFF" stroke-miterlimit="10" cx="523" cy="147.167" rx="15.667" ry="13.833"/>
	<path fill="#FFFFFF" stroke="#FFFFFF" stroke-miterlimit="10" d="M588.012,152.379c0.785,2.352-4.682,1.954-7.395,1.954
		c-7.758,0-14.046-5.847-14.046-13.06c0-3.811,1.755-7.24,4.555-9.627C571.126,131.647,586.44,147.675,588.012,152.379z"/>
	<path fill="#FFFFFF" stroke="#FFFFFF" stroke-miterlimit="10" d="M471.374,122.374c-3.784,3.407,9.441,5.841,15.959,5.841
		c11.046,0,20-6.584,20-14.706c0-2.326-0.734-4.525-2.042-6.48C505.291,107.029,487.248,108.082,471.374,122.374z"/>
	<path fill="#FFFFFF" stroke="#FFFFFF" stroke-miterlimit="10" d="M577.585,181.517c5.571-0.542-3.89-9.851-7.918-9.851
		c-4.024,0-7.354,4.272-7.917,9.833C561.75,181.5,562.837,182.951,577.585,181.517z"/>
	<path fill="#FFFFFF" stroke="#FFFFFF" stroke-miterlimit="10" d="M468.888,178.521c6.899-0.681-5.664-12.188-11.554-12.188
		c-5.909,0-10.792,5.334-11.562,12.253C445.772,178.586,445.859,180.793,468.888,178.521z"/>
	<path fill="#FFFFFF" stroke="#FFFFFF" stroke-miterlimit="10" d="M457.909,135.26c1.588-0.17,3.235-0.26,4.924-0.26
		c12.979,0,23.5,5.298,23.5,11.833c0,6.536-10.521,11.833-23.5,11.833c-7.554,0-14.275-1.795-18.574-4.583
		c0,0,6.242-12.25,13.658-18.417"/>
	<path fill="#FFFFFF" stroke="#FFFFFF" stroke-miterlimit="10" d="M545.996,113.164c-0.842,1.229-1.329,2.688-1.329,4.253
		c0,4.372,3.806,7.917,8.5,7.917c2.998,0,5.633-1.445,7.146-3.628"/>
</g>
<g id="Letter_Y">
	<g>
		<path fill="#41F75B" stroke="#41F75B" stroke-miterlimit="10" d="M122.748,383.314c-1.333-0.934-2.158-2.148-1.789-2.677
			l7.138-10.197c0.37-0.528,1.794-0.169,3.128,0.765l0,0c1.332,0.934,2.158,2.147,1.788,2.676l-7.138,10.198
			C125.505,384.606,124.081,384.247,122.748,383.314L122.748,383.314z"/>
		<path fill="#41F75B" stroke="#41F75B" stroke-miterlimit="10" d="M127.328,384.619c-0.667-0.467-0.93-1.289-0.561-1.815
			l4.906-7.011c0.37-0.528,1.232-0.563,1.898-0.096l0,0c0.665,0.467,0.929,1.288,0.56,1.816l-4.907,7.011
			C128.855,385.051,127.993,385.085,127.328,384.619L127.328,384.619z"/>
		<path fill="#41F75B" stroke="#41F75B" stroke-miterlimit="10" d="M130.677,385.065c-1.331-0.932-0.93-1.288-0.56-1.815
			l3.123-4.462c0.369-0.528,0.566-1.027,1.898-0.096l0,0c1.331,0.932,0.929,1.288,0.56,1.816l-3.124,4.461
			C132.205,385.498,132.008,385.997,130.677,385.065L130.677,385.065z"/>
		<path fill="#41F75B" stroke="#41F75B" stroke-miterlimit="10" d="M135.631,386.462c-0.555-0.391-2.583-2.168-2.275-2.606
			l1.562-2.231c0.309-0.439,2.453,1.172,3.008,1.561l0.399,0.279c0.556,0.39,1.816,1.161,1.507,1.601l-1.561,2.229
			c-0.308,0.44-1.685-0.165-2.24-0.552L135.631,386.462z"/>
		<path fill="#41F75B" stroke="#41F75B" stroke-miterlimit="10" d="M139.197,387.736c-1.251-0.876-0.289-1.352,0.058-1.848
			l0.082-0.115c0.347-0.497,0.331-1.37,1.581-0.495l0.293,0.205c1.25,0.875,1.75,2.088,1.403,2.583l-0.081,0.117
			c-0.347,0.495-1.793,0.633-3.043-0.243L139.197,387.736z"/>
		<path fill="#41F75B" stroke="#41F75B" stroke-miterlimit="10" d="M115.524,380.933c-1.458-1.022-0.663-2.045-0.256-2.626
			l9.168-13.099c0.407-0.582,0.525-0.862,1.983,0.158l1.072,0.75c1.458,1.021,2.268,1.949,1.861,2.531l-9.168,13.1
			c-0.408,0.581-2.13,0.954-3.588-0.065L115.524,380.933z"/>
		<path fill="#41F75B" stroke="#41F75B" stroke-miterlimit="10" d="M109.683,376.844c-1.352-0.946-3.274-1.574-2.741-2.338
			l10.779-15.399c0.534-0.763,2.652-0.414,4.004,0.533l0.701,0.49c1.354,0.947,3.203,3.374,2.668,4.137l-10.779,15.399
			c-0.534,0.764-2.578-1.385-3.932-2.332L109.683,376.844z"/>
	</g>
	<g>
		
			<rect x="189.823" y="476.879" transform="matrix(0.8306 0.5569 -0.5569 0.8306 302.9368 -29.1138)" fill="#3AD84D" stroke="#3AD84D" stroke-miterlimit="10" width="19" height="13.001"/>
		<polygon fill="#3AD84D" stroke="#3AD84D" stroke-miterlimit="10" points="218.63,471.644 202.849,461.062 210.088,450.264 
			213.708,452.691 212.967,458.117 217.417,461.152 222.416,458.529 225.869,460.846 		"/>
		
			<rect x="197.341" y="465.166" transform="matrix(0.8306 0.5569 -0.5569 0.8306 297.9734 -35.1985)" fill="#8307EF" stroke="#8307EF" stroke-miterlimit="10" width="18.999" height="14.001"/>
	</g>
	<g>
		
			<rect x="214.326" y="440.334" transform="matrix(0.8306 0.5569 -0.5569 0.8306 286.7863 -48.9428)" fill="#3AD84D" stroke="#3AD84D" stroke-miterlimit="10" width="19" height="12.999"/>
		<polygon fill="#3AD84D" stroke="#3AD84D" stroke-miterlimit="10" points="243.133,435.097 227.352,424.517 234.592,413.719 
			238.211,416.146 237.47,421.571 241.92,424.606 246.919,421.984 250.373,424.3 		"/>
		
			<rect x="221.844" y="428.621" transform="matrix(0.8306 0.5569 -0.5569 0.8306 281.7805 -55.0338)" fill="#8307EF" stroke="#8307EF" stroke-miterlimit="10" width="19.001" height="14"/>
	</g>
	<g>
		
			<rect x="237.727" y="406.038" transform="matrix(0.8176 0.5758 -0.5758 0.8176 282.614 -67.1041)" fill="#3AD84D" stroke="#3AD84D" stroke-miterlimit="10" width="19" height="13"/>
		<polygon fill="#3AD84D" stroke="#3AD84D" stroke-miterlimit="10" points="266.798,401.246 251.263,390.307 258.748,379.678 
			262.311,382.188 261.446,387.595 265.825,390.73 270.883,388.224 274.283,390.617 		"/>
		
			<rect x="245.5" y="394.5" transform="matrix(0.8176 0.5758 -0.5758 0.8176 277.6764 -73.5927)" fill="#8307EF" stroke="#8307EF" stroke-miterlimit="10" width="19" height="14.001"/>
	</g>
	<g>
		
			<rect x="261.727" y="371.038" transform="matrix(0.8176 0.5758 -0.5758 0.8176 266.8396 -87.3058)" fill="#3AD84D" stroke="#3AD84D" stroke-miterlimit="10" width="19" height="13"/>
		<polygon fill="#3AD84D" stroke="#3AD84D" stroke-miterlimit="10" points="290.798,366.246 275.263,355.307 282.748,344.678 
			286.311,347.188 285.446,352.595 289.825,355.73 294.883,353.224 298.283,355.617 		"/>
		
			<rect x="269.5" y="359.5" transform="matrix(0.8176 0.5758 -0.5758 0.8176 261.9019 -93.7944)" fill="#8307EF" stroke="#8307EF" stroke-miterlimit="10" width="19" height="14.001"/>
	</g>
	<g>
		
			<rect x="260.272" y="335.962" transform="matrix(-0.8176 -0.5758 0.5758 -0.8176 293.1662 777.7894)" fill="#3AD84D" stroke="#3AD84D" stroke-miterlimit="10" width="19" height="13"/>
		<polygon fill="#3AD84D" stroke="#3AD84D" stroke-miterlimit="10" points="250.202,353.754 265.736,364.693 258.251,375.322 
			254.688,372.813 255.553,367.405 251.174,364.27 246.117,366.776 242.717,364.383 		"/>
		
			<rect x="252.5" y="346.5" transform="matrix(-0.8176 -0.5758 0.5758 -0.8176 272.6827 793.3771)" fill="#8307EF" stroke="#8307EF" stroke-miterlimit="10" width="19" height="14.001"/>
	</g>
	<g>
		
			<rect x="236.272" y="370.962" transform="matrix(-0.8176 -0.5758 0.5758 -0.8176 229.3918 827.5878)" fill="#3AD84D" stroke="#3AD84D" stroke-miterlimit="10" width="19" height="13"/>
		<polygon fill="#3AD84D" stroke="#3AD84D" stroke-miterlimit="10" points="226.202,388.754 241.736,399.693 234.251,410.322 
			230.688,407.813 231.553,402.405 227.174,399.27 222.117,401.776 218.717,399.383 		"/>
		
			<rect x="228.5" y="381.5" transform="matrix(-0.8176 -0.5758 0.5758 -0.8176 208.9082 843.1754)" fill="#8307EF" stroke="#8307EF" stroke-miterlimit="10" width="19" height="14.001"/>
	</g>
	<g>
		
			<rect x="210.359" y="409.722" transform="matrix(0.5784 -0.8158 0.8158 0.5784 -246.8417 354.8322)" fill="#3AD84D" stroke="#3AD84D" stroke-miterlimit="10" width="19" height="12.999"/>
		<polygon fill="#3AD84D" stroke="#3AD84D" stroke-miterlimit="10" points="208.629,396.614 197.64,412.113 187.035,404.595 
			189.556,401.04 194.96,401.923 198.11,397.553 195.619,392.488 198.024,389.096 		"/>
		
			<rect x="199.345" y="401.411" transform="matrix(0.5783 -0.8158 0.8158 0.5783 -245.1215 342.6014)" fill="#8307EF" stroke="#8307EF" stroke-miterlimit="10" width="19.001" height="14.002"/>
	</g>
	<g>
		
			<rect x="176.438" y="384.613" transform="matrix(0.5783 -0.8158 0.8158 0.5783 -240.6659 316.6058)" fill="#3AD84D" stroke="#3AD84D" stroke-miterlimit="10" width="19" height="13"/>
		<polygon fill="#3AD84D" stroke="#3AD84D" stroke-miterlimit="10" points="174.708,371.506 163.72,387.006 153.115,379.487 
			155.636,375.933 161.04,376.814 164.19,372.446 161.699,367.38 164.104,363.987 		"/>
		
			<rect x="165.424" y="376.304" transform="matrix(0.5783 -0.8158 0.8158 0.5783 -238.9402 304.3323)" fill="#8307EF" stroke="#8307EF" stroke-miterlimit="10" width="19.001" height="14.001"/>
	</g>
	<g>
		
			<rect x="142.471" y="359.51" transform="matrix(0.5784 -0.8158 0.8158 0.5784 -234.5027 278.2828)" fill="#3AD84D" stroke="#3AD84D" stroke-miterlimit="10" width="19" height="12.999"/>
		<polygon fill="#3AD84D" stroke="#3AD84D" stroke-miterlimit="10" points="140.741,346.402 129.752,361.901 119.147,354.384 
			121.668,350.828 127.073,351.711 130.222,347.342 127.732,342.276 130.136,338.884 		"/>
		
			<rect x="131.458" y="351.2" transform="matrix(0.5783 -0.8158 0.8158 0.5783 -232.7828 266.033)" fill="#8307EF" stroke="#8307EF" stroke-miterlimit="10" width="19" height="14.002"/>
	</g>
	<g>
		
			<rect x="109.174" y="329.752" transform="matrix(-0.8158 -0.5784 0.5784 -0.8158 20.9959 679.1901)" fill="#3AD84D" stroke="#3AD84D" stroke-miterlimit="10" width="19" height="12.999"/>
		<polygon fill="#3AD84D" stroke="#3AD84D" stroke-miterlimit="10" points="99.066,347.481 114.566,358.47 107.048,369.075 
			103.492,366.554 104.375,361.149 100.005,358 94.94,360.49 91.548,358.086 		"/>
		
			<rect x="101.364" y="340.264" transform="matrix(-0.8158 -0.5783 0.5783 -0.8158 0.4824 694.683)" fill="#8307EF" stroke="#8307EF" stroke-miterlimit="10" width="19.001" height="14.001"/>
	</g>
	<g>
		
			<rect x="290.538" y="334.773" transform="matrix(0.5758 -0.8176 0.8176 0.5758 -151.7439 390.0903)" fill="#3AD84D" stroke="#3AD84D" stroke-miterlimit="10" width="19" height="13"/>
		<polygon fill="#3AD84D" stroke="#3AD84D" stroke-miterlimit="10" points="288.746,321.702 277.807,337.236 267.178,329.752 
			269.688,326.188 275.095,327.054 278.23,322.675 275.724,317.617 278.117,314.217 		"/>
		
			<rect x="279.5" y="326.499" transform="matrix(0.5758 -0.8176 0.8176 0.5758 -150.0696 377.7807)" fill="#8307EF" stroke="#8307EF" stroke-miterlimit="10" width="19" height="14.001"/>
	</g>
	<g>
		<path fill="#41F75B" stroke="#41F75B" stroke-miterlimit="10" d="M184.875,528.943c-10.253,15.291-23.749,24.21-30.146,19.92
			c-6.397-4.289-3.272-20.162,6.98-35.453c5.493-8.191,11.254-17.081,17.019-20.563c2.083-1.259,5.552-1.835,7.521-1.78
			c2.755,0.077,5.766-1.553,7.498-0.391c1.822,1.221,2.945,4.757,3.3,7.63c0.234,1.895,1.047,4.636,0.694,6.888
			C196.696,511.84,190.351,520.775,184.875,528.943z"/>
		<path fill="#41F75B" stroke="#3AD84D" stroke-width="0.5" stroke-miterlimit="10" d="M176.751,495.951
			c0,0,9.375,3.885,4.05,12.522C180.801,508.474,183.36,500.102,176.751,495.951z"/>
		<path fill="#41F75B" stroke="#3AD84D" stroke-width="0.5" stroke-miterlimit="10" d="M196.135,508.947
			c0,0-7.154-7.197-13.122,1.01C183.013,509.957,189.786,504.41,196.135,508.947z"/>
		<g>
			
				<ellipse transform="matrix(0.8306 0.5569 -0.5569 0.8306 312.457 -11.0009)" fill="#FFFFFF" stroke="#FFFFFF" stroke-miterlimit="10" cx="174.309" cy="508.048" rx="4.629" ry="8.415"/>
		</g>
		<g>
			
				<ellipse transform="matrix(0.8305 0.557 -0.557 0.8305 318.8309 -16.1401)" fill="#FFFFFF" stroke="#FFFFFF" stroke-miterlimit="10" cx="185.938" cy="515.845" rx="4.629" ry="8.415"/>
		</g>
		
			<ellipse transform="matrix(0.8305 0.557 -0.557 0.8305 312.6198 -10.7208)" stroke="#000000" stroke-miterlimit="10" cx="173.928" cy="508.386" rx="2" ry="3.754"/>
		
			<ellipse transform="matrix(0.8306 0.5569 -0.5569 0.8306 318.8967 -15.8853)" stroke="#000000" stroke-miterlimit="10" cx="185.557" cy="516.183" rx="2" ry="3.753"/>
		<path fill="#3AD84D" stroke="#3AD84D" stroke-width="0.25" stroke-miterlimit="10" d="M155.155,537.441
			c0,0,3.684-0.539,4.292,2.879C159.448,540.32,158.556,537.916,155.155,537.441z"/>
		<path fill="#3AD84D" stroke="#3AD84D" stroke-width="0.25" stroke-miterlimit="10" d="M165.263,544.22c0,0-0.9-3.614-4.293-2.88
			C160.97,541.34,163.532,541.252,165.263,544.22z"/>
	</g>
</g>
<g id="Letter_E">
	<g>
		<path fill="#41F75B" stroke="#41F75B" stroke-miterlimit="10" d="M346.293,560.395c0.04-1.33,0.501-2.438,1.026-2.424
			l10.173,0.304c0.527,0.016,0.922,1.149,0.882,2.48l0,0c-0.04,1.33-0.5,2.438-1.027,2.423l-10.173-0.303
			C346.647,562.859,346.254,561.725,346.293,560.395L346.293,560.395z"/>
		<path fill="#41F75B" stroke="#41F75B" stroke-miterlimit="10" d="M347.457,564.111c0.02-0.666,0.463-1.215,0.988-1.198
			l6.994,0.208c0.527,0.016,0.938,0.589,0.917,1.254l0,0c-0.021,0.665-0.463,1.213-0.99,1.198l-6.994-0.208
			C347.847,565.349,347.437,564.774,347.457,564.111L347.457,564.111z"/>
		<path fill="#41F75B" stroke="#41F75B" stroke-miterlimit="10" d="M348.654,566.6c0.04-1.327,0.464-1.213,0.989-1.197l4.451,0.133
			c0.527,0.015,0.956-0.074,0.917,1.254l0,0c-0.039,1.328-0.463,1.213-0.989,1.198l-4.451-0.134
			C349.044,567.839,348.615,567.928,348.654,566.6L348.654,566.6z"/>
		<path fill="#41F75B" stroke="#41F75B" stroke-miterlimit="10" d="M349.923,570.613c0.018-0.555,0.322-2.739,0.76-2.726
			l2.227,0.066c0.438,0.014,0.3,2.202,0.283,2.757l-0.012,0.398c-0.017,0.554,0.021,1.762-0.417,1.747l-2.225-0.065
			c-0.439-0.014-0.644-1.227-0.628-1.778L349.923,570.613z"/>
		<path fill="#41F75B" stroke="#41F75B" stroke-miterlimit="10" d="M350.651,573.622c0.038-1.248,0.795-0.805,1.289-0.79
			l0.116,0.005c0.494,0.014,1.084-0.389,1.047,0.857l-0.009,0.292c-0.037,1.247-0.641,2.134-1.136,2.119l-0.117-0.003
			c-0.493-0.015-1.236-0.942-1.198-2.189L350.651,573.622z"/>
		<path fill="#41F75B" stroke="#41F75B" stroke-miterlimit="10" d="M344.68,554.389c0.044-1.456,1.101-1.37,1.681-1.353
			l13.065,0.388c0.582,0.018,0.826-0.028,0.783,1.427l-0.032,1.069c-0.043,1.454-0.314,2.424-0.896,2.407l-13.066-0.388
			c-0.58-0.019-1.608-1.029-1.565-2.482L344.68,554.389z"/>
		<path fill="#41F75B" stroke="#41F75B" stroke-miterlimit="10" d="M344.854,548.562c0.04-1.349-0.394-2.944,0.368-2.923
			l15.362,0.458c0.761,0.022,1.473,1.627,1.433,2.977l-0.021,0.698c-0.039,1.351-0.868,3.703-1.63,3.681l-15.362-0.458
			c-0.762-0.022-0.21-2.384-0.17-3.733L344.854,548.562z"/>
	</g>
	<g>
		
			<rect x="402.849" y="562.578" transform="matrix(0.0094 -1 1 0.0094 -161.1235 973.1361)" fill="#3AD84D" stroke="#3AD84D" stroke-miterlimit="10" width="15.535" height="10.629"/>
		<polygon fill="#3AD84D" stroke="#3AD84D" stroke-miterlimit="10" points="393.93,559.967 393.782,575.501 383.153,575.401 
			383.187,571.838 387.228,569.909 387.306,565.506 383.269,563.267 383.301,559.866 		"/>
		
			<rect x="391.812" y="562.065" transform="matrix(0.0094 -1 1 0.0094 -171.9528 961.9952)" fill="#8307EF" stroke="#8307EF" stroke-miterlimit="10" width="15.534" height="11.447"/>
	</g>
	<g>
		
			<rect x="438.007" y="562.578" transform="matrix(0.0094 -1 1 0.0094 -126.2968 1008.2928)" fill="#3AD84D" stroke="#3AD84D" stroke-miterlimit="10" width="15.535" height="10.629"/>
		<polygon fill="#3AD84D" stroke="#3AD84D" stroke-miterlimit="10" points="429.088,559.967 428.94,575.501 418.312,575.401 
			418.345,571.838 422.386,569.909 422.463,565.506 418.427,563.267 418.459,559.866 		"/>
		
			<rect x="426.97" y="562.065" transform="matrix(0.0094 -1 1 0.0094 -137.1261 997.1519)" fill="#8307EF" stroke="#8307EF" stroke-miterlimit="10" width="15.534" height="11.447"/>
	</g>
	<g>
		
			<rect x="364.725" y="565.335" transform="matrix(1 0.0094 -0.0094 1 5.3974 -3.487)" fill="#3AD84D" stroke="#3AD84D" stroke-miterlimit="10" width="15.535" height="10.629"/>
		<polygon fill="#3AD84D" stroke="#3AD84D" stroke-miterlimit="10" points="380.419,553.963 364.885,553.815 364.984,543.187 
			368.548,543.22 370.477,547.261 374.88,547.339 377.119,543.302 380.52,543.334 		"/>
		
			<rect x="364.83" y="553.888" transform="matrix(1 0.0094 -0.0094 1 5.2937 -3.4887)" fill="#8307EF" stroke="#8307EF" stroke-miterlimit="10" width="15.534" height="11.447"/>
	</g>
	<g>
		
			<rect x="364.726" y="529.359" transform="matrix(1 0.0094 -0.0094 1 5.0579 -3.4884)" fill="#3AD84D" stroke="#3AD84D" stroke-miterlimit="10" width="15.536" height="10.629"/>
		<polygon fill="#3AD84D" stroke="#3AD84D" stroke-miterlimit="10" points="380.419,517.987 364.885,517.84 364.985,507.211 
			368.548,507.244 370.477,511.285 374.88,511.363 377.12,507.326 380.52,507.358 		"/>
		
			<rect x="364.831" y="517.913" transform="matrix(1 0.0094 -0.0094 1 4.9548 -3.4905)" fill="#8307EF" stroke="#8307EF" stroke-miterlimit="10" width="15.533" height="11.447"/>
	</g>
	<g>
		
			<rect x="364.726" y="494.201" transform="matrix(1 0.0094 -0.0094 1 4.7264 -3.49)" fill="#3AD84D" stroke="#3AD84D" stroke-miterlimit="10" width="15.536" height="10.629"/>
		<polygon fill="#3AD84D" stroke="#3AD84D" stroke-miterlimit="10" points="380.419,482.829 364.885,482.682 364.985,472.053 
			368.548,472.086 370.477,476.127 374.88,476.205 377.12,472.168 380.52,472.2 		"/>
		
			<rect x="364.831" y="482.755" transform="matrix(1 0.0095 -0.0095 1 4.6541 -3.5152)" fill="#8307EF" stroke="#8307EF" stroke-miterlimit="10" width="15.533" height="11.447"/>
	</g>
	<g>
		
			<rect x="361.968" y="456.078" transform="matrix(-0.0094 1 -1 -0.0094 834.5945 96.023)" fill="#3AD84D" stroke="#3AD84D" stroke-miterlimit="10" width="15.536" height="10.629"/>
		<polygon fill="#3AD84D" stroke="#3AD84D" stroke-miterlimit="10" points="386.423,469.318 386.57,453.783 397.199,453.884 
			397.166,457.446 393.125,459.376 393.047,463.778 397.084,466.019 397.052,469.419 		"/>
		
			<rect x="373.007" y="455.772" transform="matrix(-0.0095 1 -1 -0.0095 845.8632 85.1205)" fill="#8307EF" stroke="#8307EF" stroke-miterlimit="10" width="15.533" height="11.447"/>
	</g>
	<g>
		
			<rect x="397.127" y="456.077" transform="matrix(-0.0094 1 -1 -0.0094 870.0591 60.8372)" fill="#3AD84D" stroke="#3AD84D" stroke-miterlimit="10" width="15.536" height="10.63"/>
		<polygon fill="#3AD84D" stroke="#3AD84D" stroke-miterlimit="10" points="421.581,469.318 421.728,453.783 432.357,453.884 
			432.323,457.446 428.282,459.376 428.205,463.778 432.242,466.019 432.209,469.419 		"/>
		
			<rect x="408.165" y="455.773" transform="matrix(-0.0095 1 -1 -0.0095 881.3546 49.9644)" fill="#8307EF" stroke="#8307EF" stroke-miterlimit="10" width="15.533" height="11.446"/>
	</g>
	<g>
		
			<rect x="419.202" y="438.298" transform="matrix(0.0094 -1 1 0.0094 -20.6487 866.3803)" fill="#3AD84D" stroke="#3AD84D" stroke-miterlimit="10" width="15.536" height="10.629"/>
		<polygon fill="#3AD84D" stroke="#3AD84D" stroke-miterlimit="10" points="410.283,435.687 410.136,451.222 399.507,451.121 
			399.54,447.559 403.581,445.629 403.658,441.227 399.622,438.986 399.654,435.586 		"/>
		
			<rect x="408.166" y="437.786" transform="matrix(0.0094 -1 1 0.0094 -31.4799 855.2404)" fill="#8307EF" stroke="#8307EF" stroke-miterlimit="10" width="15.533" height="11.447"/>
	</g>
	<g>
		
			<rect x="384.044" y="437.48" transform="matrix(0.0094 -1 1 0.0094 -54.6575 830.4135)" fill="#3AD84D" stroke="#3AD84D" stroke-miterlimit="10" width="15.536" height="10.629"/>
		<polygon fill="#3AD84D" stroke="#3AD84D" stroke-miterlimit="10" points="375.125,434.869 374.978,450.404 364.349,450.304 
			364.382,446.74 368.423,444.812 368.501,440.409 364.464,438.168 364.496,434.769 		"/>
		
			<rect x="373.008" y="436.969" transform="matrix(0.0094 -1 1 0.0094 -65.4894 819.2738)" fill="#8307EF" stroke="#8307EF" stroke-miterlimit="10" width="15.532" height="11.447"/>
	</g>
	<g>
		
			<rect x="364.727" y="422.25" transform="matrix(1 0.0094 -0.0094 1 4.048 -3.4932)" fill="#3AD84D" stroke="#3AD84D" stroke-miterlimit="10" width="15.536" height="10.629"/>
		<polygon fill="#3AD84D" stroke="#3AD84D" stroke-miterlimit="10" points="380.42,410.878 364.885,410.73 364.985,400.102 
			368.549,400.135 370.478,404.176 374.881,404.254 377.121,400.217 380.521,400.249 		"/>
		
			<rect x="364.831" y="410.803" transform="matrix(1 0.0094 -0.0094 1 3.9449 -3.4955)" fill="#8307EF" stroke="#8307EF" stroke-miterlimit="10" width="15.532" height="11.447"/>
	</g>
	<g>
		
			<rect x="364.727" y="387.908" transform="matrix(1 0.0094 -0.0094 1 3.6992 -3.4715)" fill="#3AD84D" stroke="#3AD84D" stroke-miterlimit="10" width="15.536" height="10.63"/>
		<polygon fill="#3AD84D" stroke="#3AD84D" stroke-miterlimit="10" points="380.42,376.537 364.885,376.391 364.985,365.761 
			368.549,365.795 370.478,369.836 374.881,369.913 377.121,365.876 380.521,365.909 		"/>
		
			<rect x="364.831" y="376.464" transform="matrix(1 0.0095 -0.0095 1 3.6453 -3.5202)" fill="#8307EF" stroke="#8307EF" stroke-miterlimit="10" width="15.532" height="11.446"/>
	</g>
	<g>
		
			<rect x="361.97" y="350.604" transform="matrix(-0.0094 1 -1 -0.0094 729.1036 -10.4696)" fill="#3AD84D" stroke="#3AD84D" stroke-miterlimit="10" width="15.536" height="10.629"/>
		<polygon fill="#3AD84D" stroke="#3AD84D" stroke-miterlimit="10" points="386.425,363.844 386.571,348.309 397.201,348.41 
			397.167,351.973 393.126,353.901 393.049,358.304 397.086,360.545 397.053,363.944 		"/>
		
			<rect x="373.009" y="350.298" transform="matrix(-0.0094 1 -1 -0.0094 740.3712 -21.3793)" fill="#8307EF" stroke="#8307EF" stroke-miterlimit="10" width="15.532" height="11.447"/>
	</g>
	<g>
		
			<rect x="397.128" y="350.604" transform="matrix(-0.0094 1 -1 -0.0094 764.6158 -45.6032)" fill="#3AD84D" stroke="#3AD84D" stroke-miterlimit="10" width="15.536" height="10.629"/>
		<polygon fill="#3AD84D" stroke="#3AD84D" stroke-miterlimit="10" points="421.583,363.844 421.729,348.309 432.358,348.41 
			432.325,351.973 428.284,353.901 428.207,358.304 432.244,360.545 432.211,363.944 		"/>
		
			<rect x="408.167" y="350.298" transform="matrix(-0.0094 1 -1 -0.0094 775.861 -56.5359)" fill="#8307EF" stroke="#8307EF" stroke-miterlimit="10" width="15.532" height="11.447"/>
	</g>
	<g>
		
			<rect x="432.286" y="350.604" transform="matrix(-0.0094 1 -1 -0.0094 800.1055 -80.7598)" fill="#3AD84D" stroke="#3AD84D" stroke-miterlimit="10" width="15.536" height="10.629"/>
		<polygon fill="#3AD84D" stroke="#3AD84D" stroke-miterlimit="10" points="456.74,363.844 456.888,348.309 467.517,348.41 
			467.483,351.973 463.442,353.901 463.365,358.304 467.402,360.545 467.369,363.944 		"/>
		
			<rect x="443.325" y="350.298" transform="matrix(-0.0094 1 -1 -0.0094 811.3508 -91.6926)" fill="#8307EF" stroke="#8307EF" stroke-miterlimit="10" width="15.532" height="11.447"/>
	</g>
	<g>
		
			<rect x="469.384" y="353.569" transform="matrix(1 0.0094 -0.0094 1 3.4051 -4.483)" fill="#3AD84D" stroke="#3AD84D" stroke-miterlimit="10" width="15.536" height="10.629"/>
		<polygon fill="#3AD84D" stroke="#3AD84D" stroke-miterlimit="10" points="485.077,342.197 469.543,342.05 469.644,331.42 
			473.206,331.453 475.135,335.494 479.538,335.572 481.778,331.535 485.178,331.568 		"/>
		
			<rect x="469.489" y="342.123" transform="matrix(1 0.0094 -0.0094 1 3.3018 -4.4856)" fill="#8307EF" stroke="#8307EF" stroke-miterlimit="10" width="15.532" height="11.447"/>
	</g>
	<g>
		
			<rect x="454.361" y="332.823" transform="matrix(0.0094 -1 1 0.0094 119.6768 797.0803)" fill="#3AD84D" stroke="#3AD84D" stroke-miterlimit="10" width="15.536" height="10.63"/>
		<polygon fill="#3AD84D" stroke="#3AD84D" stroke-miterlimit="10" points="445.442,330.213 445.296,345.748 434.666,345.647 
			434.699,342.084 438.74,340.155 438.817,335.753 434.78,333.512 434.813,330.112 		"/>
		
			<rect x="443.326" y="332.313" transform="matrix(0.0095 -1 1 0.0095 108.7895 785.8985)" fill="#8307EF" stroke="#8307EF" stroke-miterlimit="10" width="15.533" height="11.446"/>
	</g>
	<g>
		
			<rect x="419.203" y="331.188" transform="matrix(0.0094 -1 1 0.0094 86.4831 760.3037)" fill="#3AD84D" stroke="#3AD84D" stroke-miterlimit="10" width="15.536" height="10.63"/>
		<polygon fill="#3AD84D" stroke="#3AD84D" stroke-miterlimit="10" points="410.284,328.578 410.138,344.113 399.508,344.012 
			399.541,340.449 403.582,338.52 403.659,334.117 399.622,331.877 399.655,328.477 		"/>
		
			<rect x="408.168" y="330.677" transform="matrix(0.0095 -1 1 0.0095 75.6002 749.1221)" fill="#8307EF" stroke="#8307EF" stroke-miterlimit="10" width="15.533" height="11.446"/>
	</g>
	<g>
		
			<rect x="384.046" y="331.189" transform="matrix(0.0094 -1 1 0.0094 51.6307 725.1266)" fill="#3AD84D" stroke="#3AD84D" stroke-miterlimit="10" width="15.536" height="10.629"/>
		<polygon fill="#3AD84D" stroke="#3AD84D" stroke-miterlimit="10" points="375.126,328.578 374.979,344.113 364.35,344.012 
			364.383,340.449 368.424,338.52 368.501,334.117 364.465,331.877 364.497,328.477 		"/>
		
			<rect x="373.009" y="330.677" transform="matrix(0.0094 -1 1 0.0094 40.7995 713.9869)" fill="#8307EF" stroke="#8307EF" stroke-miterlimit="10" width="15.533" height="11.447"/>
	</g>
	<g>
		
			<rect x="346.13" y="329.04" transform="matrix(-1 -0.0094 0.0094 -1 704.6478 672.0109)" fill="#3AD84D" stroke="#3AD84D" stroke-miterlimit="10" width="15.536" height="10.63"/>
		<polygon fill="#3AD84D" stroke="#3AD84D" stroke-miterlimit="10" points="345.972,351.042 361.507,351.189 361.406,361.819 
			357.844,361.785 355.914,357.744 351.512,357.667 349.271,361.704 345.871,361.671 		"/>
		
			<rect x="346.028" y="339.669" transform="matrix(-1 -0.0095 0.0095 -1 704.2939 694.1283)" fill="#8307EF" stroke="#8307EF" stroke-miterlimit="10" width="15.533" height="11.447"/>
	</g>
	<g>
		
			<rect x="346.13" y="364.198" transform="matrix(-1 -0.0094 0.0094 -1 704.3185 742.3257)" fill="#3AD84D" stroke="#3AD84D" stroke-miterlimit="10" width="15.536" height="10.63"/>
		<polygon fill="#3AD84D" stroke="#3AD84D" stroke-miterlimit="10" points="345.972,386.2 361.507,386.347 361.406,396.977 
			357.844,396.943 355.914,392.902 351.512,392.825 349.271,396.862 345.871,396.829 		"/>
		
			<rect x="346.028" y="374.827" transform="matrix(-1 -0.0095 0.0095 -1 703.9602 764.4421)" fill="#8307EF" stroke="#8307EF" stroke-miterlimit="10" width="15.533" height="11.446"/>
	</g>
	<g>
		
			<rect x="346.13" y="399.357" transform="matrix(-1 -0.0094 0.0094 -1 703.9893 812.6406)" fill="#3AD84D" stroke="#3AD84D" stroke-miterlimit="10" width="15.536" height="10.63"/>
		<polygon fill="#3AD84D" stroke="#3AD84D" stroke-miterlimit="10" points="345.972,421.358 361.507,421.505 361.406,432.135 
			357.844,432.102 355.914,428.061 351.512,427.983 349.271,432.021 345.871,431.987 		"/>
		
			<rect x="346.028" y="409.986" transform="matrix(-1 -0.0095 0.0095 -1 703.6265 834.757)" fill="#8307EF" stroke="#8307EF" stroke-miterlimit="10" width="15.533" height="11.446"/>
	</g>
	<g>
		
			<rect x="346.13" y="434.514" transform="matrix(-1 -0.0094 0.0094 -1 703.6321 882.9755)" fill="#3AD84D" stroke="#3AD84D" stroke-miterlimit="10" width="15.536" height="10.629"/>
		<polygon fill="#3AD84D" stroke="#3AD84D" stroke-miterlimit="10" points="345.972,456.517 361.507,456.663 361.406,467.293 
			357.844,467.26 355.914,463.219 351.512,463.142 349.271,467.178 345.871,467.146 		"/>
		
			<rect x="346.028" y="445.143" transform="matrix(-1 -0.0094 0.0094 -1 703.3212 905.0499)" fill="#8307EF" stroke="#8307EF" stroke-miterlimit="10" width="15.533" height="11.447"/>
	</g>
	<g>
		
			<rect x="346.13" y="470.49" transform="matrix(-1 -0.0094 0.0094 -1 703.323 954.9051)" fill="#3AD84D" stroke="#3AD84D" stroke-miterlimit="10" width="15.536" height="10.63"/>
		<polygon fill="#3AD84D" stroke="#3AD84D" stroke-miterlimit="10" points="345.972,492.492 361.507,492.639 361.406,503.269 
			357.844,503.235 355.914,499.194 351.512,499.117 349.271,503.154 345.871,503.121 		"/>
		
			<rect x="346.028" y="481.119" transform="matrix(-1 -0.0095 0.0095 -1 702.9512 977.0214)" fill="#8307EF" stroke="#8307EF" stroke-miterlimit="10" width="15.533" height="11.446"/>
	</g>
	<g>
		
			<rect x="346.13" y="504.831" transform="matrix(-1 -0.0094 0.0094 -1 702.9691 1023.6052)" fill="#3AD84D" stroke="#3AD84D" stroke-miterlimit="10" width="15.536" height="10.629"/>
		<polygon fill="#3AD84D" stroke="#3AD84D" stroke-miterlimit="10" points="345.972,526.832 361.507,526.979 361.406,537.609 
			357.844,537.576 355.914,533.535 351.512,533.457 349.271,537.494 345.871,537.462 		"/>
		
			<rect x="346.028" y="515.46" transform="matrix(-1 -0.0094 0.0094 -1 702.6581 1045.6796)" fill="#8307EF" stroke="#8307EF" stroke-miterlimit="10" width="15.533" height="11.447"/>
	</g>
	<g>
		
			<rect x="435.042" y="459.86" transform="matrix(1 0.0094 -0.0094 1 4.3762 -4.1269)" fill="#3AD84D" stroke="#3AD84D" stroke-miterlimit="10" width="15.536" height="10.63"/>
		<polygon fill="#3AD84D" stroke="#3AD84D" stroke-miterlimit="10" points="450.735,448.488 435.2,448.342 435.301,437.713 
			438.864,437.746 440.793,441.787 445.195,441.864 447.437,437.827 450.836,437.86 		"/>
		
			<rect x="435.147" y="448.415" transform="matrix(1 0.0095 -0.0095 1 4.3316 -4.1846)" fill="#8307EF" stroke="#8307EF" stroke-miterlimit="10" width="15.532" height="11.446"/>
	</g>
	<g>
		<path fill="#41F75B" stroke="#41F75B" stroke-miterlimit="10" d="M484.286,556.745c15.053-0.058,27.274,4.999,27.299,11.297
			c0.024,6.297-12.158,11.45-27.21,11.509c-8.063,0.03-16.724,0.199-21.721-2.11c-1.808-0.834-3.787-2.921-4.651-4.279
			c-1.21-1.901-3.692-3.194-3.698-4.899c-0.008-1.793,1.873-4.174,3.657-5.729c1.176-1.025,2.659-2.833,4.346-3.625
			C467.288,556.571,476.246,556.776,484.286,556.745z"/>
		<path fill="#41F75B" stroke="#3AD84D" stroke-width="0.5" stroke-miterlimit="10" d="M465.659,577.357
			c0,0-1.661-8.129,6.628-8.479C472.287,568.879,465.445,570.981,465.659,577.357z"/>
		<path fill="#41F75B" stroke="#3AD84D" stroke-width="0.5" stroke-miterlimit="10" d="M465.585,558.276
			c0,0-1.599,8.143,6.694,8.425C472.279,566.701,465.42,564.654,465.585,558.276z"/>
		<g>
			
				<ellipse transform="matrix(-0.0039 -1 1 -0.0039 -96.6569 1050.6589)" fill="#FFFFFF" stroke="#FFFFFF" stroke-miterlimit="10" cx="474.972" cy="573.471" rx="3.785" ry="6.881"/>
		</g>
		<g>
			
				<ellipse transform="matrix(-0.0037 -1 1 -0.0037 -85.3151 1039.0524)" fill="#FFFFFF" stroke="#FFFFFF" stroke-miterlimit="10" cx="474.928" cy="562.024" rx="3.784" ry="6.879"/>
		</g>
		
			<ellipse transform="matrix(-0.0039 -1 1 -0.0039 -96.3496 1051.1731)" stroke="#000000" stroke-miterlimit="10" cx="475.375" cy="573.575" rx="1.635" ry="3.069"/>
		
			<ellipse transform="matrix(-0.0039 -1 1 -0.0039 -84.9466 1039.6375)" stroke="#000000" stroke-miterlimit="10" cx="475.332" cy="562.127" rx="1.635" ry="3.069"/>
		<path fill="#3AD84D" stroke="#3AD84D" stroke-width="0.25" stroke-miterlimit="10" d="M503.652,572.983
			c0,0-2.052-2.248-0.016-4.226C503.637,568.758,502.416,570.462,503.652,572.983z"/>
		<path fill="#3AD84D" stroke="#3AD84D" stroke-width="0.25" stroke-miterlimit="10" d="M503.614,563.032
			c0,0-2.036,2.265,0.017,4.229C503.631,567.261,502.397,565.564,503.614,563.032z"/>
	</g>
</g>
<g id="Letter_S">
	<g>
		<path fill="#41F75B" stroke="#41F75B" stroke-miterlimit="10" d="M689.93,370.294c-0.104-0.752,0.05-1.419,0.347-1.461
			l5.751-0.798c0.298-0.042,0.628,0.559,0.732,1.311l0,0c0.104,0.752-0.049,1.42-0.348,1.461l-5.75,0.799
			C690.364,371.646,690.034,371.046,689.93,370.294L689.93,370.294z"/>
		<path fill="#41F75B" stroke="#41F75B" stroke-miterlimit="10" d="M690.938,372.274c-0.053-0.377,0.145-0.728,0.442-0.769
			l3.953-0.549c0.299-0.042,0.584,0.241,0.636,0.617l0,0c0.052,0.376-0.145,0.727-0.443,0.769l-3.954,0.55
			C691.275,372.934,690.99,372.649,690.938,372.274L690.938,372.274z"/>
		<path fill="#41F75B" stroke="#41F75B" stroke-miterlimit="10" d="M691.849,373.56c-0.104-0.75,0.146-0.727,0.442-0.768l2.517-0.35
			c0.299-0.042,0.531-0.133,0.636,0.618l0,0c0.104,0.751-0.146,0.727-0.442,0.769l-2.517,0.349
			C692.187,374.22,691.954,374.311,691.849,373.56L691.849,373.56z"/>
		<path fill="#41F75B" stroke="#41F75B" stroke-miterlimit="10" d="M692.945,375.696c-0.043-0.313-0.08-1.571,0.168-1.605
			l1.259-0.175c0.247-0.034,0.378,1.21,0.421,1.524l0.031,0.225c0.044,0.313,0.181,0.989-0.067,1.022l-1.258,0.176
			c-0.248,0.034-0.479-0.629-0.522-0.94L692.945,375.696z"/>
		<path fill="#41F75B" stroke="#41F75B" stroke-miterlimit="10" d="M693.642,377.319c-0.098-0.705,0.371-0.528,0.649-0.567
			l0.066-0.008c0.279-0.039,0.572-0.322,0.671,0.383l0.022,0.165c0.098,0.705-0.157,1.261-0.438,1.3l-0.065,0.01
			c-0.279,0.039-0.786-0.412-0.883-1.117L693.642,377.319z"/>
		<path fill="#41F75B" stroke="#41F75B" stroke-miterlimit="10" d="M688.45,367.069c-0.114-0.823,0.488-0.875,0.816-0.921
			l7.386-1.026c0.33-0.046,0.463-0.095,0.577,0.728l0.083,0.605c0.115,0.821,0.055,1.393-0.274,1.438l-7.387,1.027
			c-0.328,0.045-1.003-0.426-1.117-1.247L688.45,367.069z"/>
		<path fill="#41F75B" stroke="#41F75B" stroke-miterlimit="10" d="M687.992,363.775c-0.105-0.763-0.502-1.619-0.071-1.68
			l8.686-1.206c0.43-0.06,0.983,0.775,1.089,1.538l0.055,0.396c0.106,0.763-0.135,2.165-0.565,2.226l-8.686,1.205
			c-0.431,0.061-0.345-1.32-0.451-2.083L687.992,363.775z"/>
	</g>
	<g>
		
			<rect x="578.51" y="501.135" transform="matrix(-0.9618 -0.2736 0.2736 -0.9618 1005.6986 1148.5895)" fill="#3AD84D" stroke="#3AD84D" stroke-miterlimit="10" width="8.863" height="6.065"/>
		<polygon fill="#3AD84D" stroke="#3AD84D" stroke-miterlimit="10" points="576.062,512.151 584.586,514.577 582.927,520.41 
			580.972,519.854 580.521,517.34 578.109,516.633 576.268,518.516 574.402,517.984 		"/>
		
			<rect x="576.787" y="506.959" transform="matrix(-0.9618 -0.2736 0.2736 -0.9618 1000.6412 1160.0139)" fill="#8307EF" stroke="#8307EF" stroke-miterlimit="10" width="8.862" height="6.531"/>
	</g>
	<g>
		
			<rect x="571.832" y="522.192" transform="matrix(-0.97 0.2431 -0.2431 -0.97 1262.9058 894.6358)" fill="#3AD84D" stroke="#3AD84D" stroke-miterlimit="10" width="8.863" height="6.065"/>
		<polygon fill="#3AD84D" stroke="#3AD84D" stroke-miterlimit="10" points="574.289,535.577 582.887,533.424 584.36,539.306 
			582.389,539.8 580.742,537.847 578.301,538.438 577.645,540.988 575.763,541.46 		"/>
		
			<rect x="573.363" y="528.068" transform="matrix(-0.97 0.243 -0.243 -0.97 1267.365 906.3712)" fill="#8307EF" stroke="#8307EF" stroke-miterlimit="10" width="8.863" height="6.531"/>
	</g>
	<g>
		
			<rect x="577.615" y="542.533" transform="matrix(-0.7297 0.6838 -0.6838 -0.7297 1379.8054 545.6266)" fill="#3AD84D" stroke="#3AD84D" stroke-miterlimit="10" width="8.863" height="6.065"/>
		<polygon fill="#3AD84D" stroke="#3AD84D" stroke-miterlimit="10" points="585.351,555.573 591.818,549.513 595.966,553.938 
			594.481,555.328 592.094,554.421 590.247,556.124 590.913,558.672 589.497,559.998 		"/>
		
			<rect x="581.921" y="546.895" transform="matrix(-0.7298 0.6837 -0.6837 -0.7298 1390.3948 550.7548)" fill="#8307EF" stroke="#8307EF" stroke-miterlimit="10" width="8.863" height="6.53"/>
	</g>
	<g>
		
			<rect x="594.719" y="557.86" transform="matrix(-0.2891 0.9573 -0.9573 -0.2891 1309.3171 149.499)" fill="#3AD84D" stroke="#3AD84D" stroke-miterlimit="10" width="8.863" height="6.063"/>
		<polygon fill="#3AD84D" stroke="#3AD84D" stroke-miterlimit="10" points="607.023,567.898 609.586,559.414 615.392,561.166 
			614.804,563.112 612.283,563.523 611.537,565.923 613.391,567.794 612.829,569.651 		"/>
		
			<rect x="600.747" y="559.447" transform="matrix(-0.289 0.9573 -0.9573 -0.289 1318.7748 145.977)" fill="#8307EF" stroke="#8307EF" stroke-miterlimit="10" width="8.864" height="6.531"/>
	</g>
	<g>
		
			<rect x="615.002" y="562.132" transform="matrix(-0.0637 0.998 -0.998 -0.0637 1222.9005 -17.017)" fill="#3AD84D" stroke="#3AD84D" stroke-miterlimit="10" width="8.863" height="6.064"/>
		<polygon fill="#3AD84D" stroke="#3AD84D" stroke-miterlimit="10" points="628.694,570.195 629.258,561.351 635.311,561.735 
			635.181,563.765 632.82,564.738 632.64,567.244 634.87,568.645 634.746,570.581 		"/>
		
			<rect x="621.285" y="562.3" transform="matrix(-0.0637 0.998 -0.998 -0.0637 1229.9814 -22.8658)" fill="#8307EF" stroke="#8307EF" stroke-miterlimit="10" width="8.864" height="6.53"/>
	</g>
	<g>
		
			<rect x="638.739" y="561.203" transform="matrix(0.3325 0.9431 -0.9431 0.3325 961.4119 -229.9637)" fill="#3AD84D" stroke="#3AD84D" stroke-miterlimit="10" width="8.863" height="6.065"/>
		<polygon fill="#3AD84D" stroke="#3AD84D" stroke-miterlimit="10" points="653.662,565.235 650.716,556.878 656.435,554.86 
			657.11,556.777 655.32,558.599 656.136,560.976 658.737,561.39 659.382,563.22 		"/>
		
			<rect x="644.678" y="558.877" transform="matrix(0.3324 0.9431 -0.9431 0.3324 963.5145 -236.9173)" fill="#8307EF" stroke="#8307EF" stroke-miterlimit="10" width="8.863" height="6.53"/>
	</g>
	<g>
		
			<rect x="659.842" y="552.251" transform="matrix(0.8135 0.5816 -0.5816 0.8135 446.8166 -282.7571)" fill="#3AD84D" stroke="#3AD84D" stroke-miterlimit="10" width="8.863" height="6.065"/>
		<polygon fill="#3AD84D" stroke="#3AD84D" stroke-miterlimit="10" points="673.44,550.082 666.231,544.928 669.758,539.993 
			671.411,541.176 670.99,543.695 673.021,545.173 675.39,544.021 676.968,545.148 		"/>
		
			<rect x="663.505" y="546.896" transform="matrix(0.8135 0.5816 -0.5816 0.8135 444.5958 -285.8627)" fill="#8307EF" stroke="#8307EF" stroke-miterlimit="10" width="8.863" height="6.53"/>
	</g>
	<g>
		
			<rect x="670.449" y="532.316" transform="matrix(0.9999 -0.0154 0.0154 0.9999 -8.1784 10.475)" fill="#3AD84D" stroke="#3AD84D" stroke-miterlimit="10" width="8.862" height="6.064"/>
		<polygon fill="#3AD84D" stroke="#3AD84D" stroke-miterlimit="10" points="679.164,525.719 670.303,525.855 670.207,519.791 
			672.24,519.76 673.398,522.037 675.91,522.019 677.131,519.685 679.069,519.654 		"/>
		
			<rect x="670.352" y="525.787" transform="matrix(0.9999 -0.0154 0.0154 0.9999 -8.0804 10.4716)" fill="#8307EF" stroke="#8307EF" stroke-miterlimit="10" width="8.863" height="6.53"/>
	</g>
	<g>
		
			<rect x="667.037" y="511.081" transform="matrix(0.9801 -0.1985 0.1985 0.9801 -88.7016 143.5409)" fill="#3AD84D" stroke="#3AD84D" stroke-miterlimit="10" width="8.864" height="6.065"/>
		<polygon fill="#3AD84D" stroke="#3AD84D" stroke-miterlimit="10" points="673.914,503.863 665.229,505.622 664.023,499.678 
			666.017,499.273 667.572,501.301 670.038,500.821 670.81,498.304 672.71,497.919 		"/>
		
			<rect x="665.788" y="504.678" transform="matrix(0.9801 -0.1984 0.1984 0.9801 -87.4619 143.0883)" fill="#8307EF" stroke="#8307EF" stroke-miterlimit="10" width="8.864" height="6.529"/>
	</g>
	<g>
		
			<rect x="660.966" y="490.01" transform="matrix(0.8048 -0.5936 0.5936 0.8048 -162.7575 491.2041)" fill="#3AD84D" stroke="#3AD84D" stroke-miterlimit="10" width="8.863" height="6.064"/>
		<polygon fill="#3AD84D" stroke="#3AD84D" stroke-miterlimit="10" points="663.29,482.716 656.158,487.976 652.557,483.096 
			654.193,481.889 656.459,483.069 658.492,481.595 658.129,478.986 659.69,477.835 		"/>
		
			<rect x="657.23" y="484.708" transform="matrix(0.8048 -0.5935 0.5935 0.8048 -160.4781 487.9625)" fill="#8307EF" stroke="#8307EF" stroke-miterlimit="10" width="8.865" height="6.53"/>
	</g>
	<g>
		
			<rect x="647.301" y="472.965" transform="matrix(0.7254 -0.6884 0.6884 0.7254 -148.6718 579.3453)" fill="#3AD84D" stroke="#3AD84D" stroke-miterlimit="10" width="8.864" height="6.064"/>
		<polygon fill="#3AD84D" stroke="#3AD84D" stroke-miterlimit="10" points="648.365,466.01 641.938,472.11 637.761,467.713 
			639.235,466.313 641.63,467.204 643.466,465.489 642.783,462.946 644.189,461.61 		"/>
		
			<rect x="642.967" y="468.163" transform="matrix(0.7253 -0.6884 0.6884 0.7253 -146.709 575.1708)" fill="#8307EF" stroke="#8307EF" stroke-miterlimit="10" width="8.865" height="6.53"/>
	</g>
	<g>
		
			<rect x="629.044" y="458.701" transform="matrix(0.7253 -0.6884 0.6884 0.7253 -143.8597 562.92)" fill="#3AD84D" stroke="#3AD84D" stroke-miterlimit="10" width="8.863" height="6.065"/>
		<polygon fill="#3AD84D" stroke="#3AD84D" stroke-miterlimit="10" points="630.108,451.746 623.681,457.847 619.504,453.449 
			620.979,452.05 623.373,452.941 625.209,451.227 624.526,448.684 625.933,447.348 		"/>
		
			<rect x="624.71" y="453.9" transform="matrix(0.7253 -0.6884 0.6884 0.7253 -141.9045 558.6846)" fill="#8307EF" stroke="#8307EF" stroke-miterlimit="10" width="8.865" height="6.53"/>
	</g>
	<g>
		
			<rect x="615.351" y="442.726" transform="matrix(0.7253 -0.6884 0.6884 0.7253 -136.6229 549.1091)" fill="#3AD84D" stroke="#3AD84D" stroke-miterlimit="10" width="8.865" height="6.064"/>
		<polygon fill="#3AD84D" stroke="#3AD84D" stroke-miterlimit="10" points="616.416,435.771 609.988,441.872 605.812,437.475 
			607.286,436.075 609.681,436.967 611.516,435.252 610.834,432.708 612.24,431.373 		"/>
		
			<rect x="611.017" y="437.925" transform="matrix(0.7253 -0.6884 0.6884 0.7253 -134.6685 544.8707)" fill="#8307EF" stroke="#8307EF" stroke-miterlimit="10" width="8.865" height="6.53"/>
	</g>
	<g>
		
			<rect x="601.159" y="426.972" transform="matrix(0.9415 -0.3371 0.3371 0.9415 -109.5092 229.3163)" fill="#3AD84D" stroke="#3AD84D" stroke-miterlimit="10" width="8.865" height="6.064"/>
		<polygon fill="#3AD84D" stroke="#3AD84D" stroke-miterlimit="10" points="606.539,419.508 598.196,422.495 596.149,416.787 
			598.063,416.101 599.895,417.883 602.267,417.055 602.668,414.452 604.494,413.798 		"/>
		
			<rect x="599.036" y="420.81" transform="matrix(0.9415 -0.3371 0.3371 0.9415 -107.6349 228.2539)" fill="#8307EF" stroke="#8307EF" stroke-miterlimit="10" width="8.865" height="6.53"/>
	</g>
	<g>
		
			<rect x="592.802" y="406.801" transform="matrix(1 -0.0067 0.0067 1 -2.741 4.0232)" fill="#3AD84D" stroke="#3AD84D" stroke-miterlimit="10" width="8.863" height="6.065"/>
		<polygon fill="#3AD84D" stroke="#3AD84D" stroke-miterlimit="10" points="601.602,400.242 592.74,400.301 592.697,394.237 
			594.73,394.223 595.869,396.511 598.381,396.514 599.621,394.19 601.561,394.178 		"/>
		
			<rect x="592.761" y="400.271" transform="matrix(1 -0.0066 0.0066 1 -2.6543 3.9563)" fill="#8307EF" stroke="#8307EF" stroke-miterlimit="10" width="8.864" height="6.53"/>
	</g>
	<g>
		
			<rect x="594.313" y="385.408" transform="matrix(0.9549 0.2968 -0.2968 0.9549 142.2655 -160.2017)" fill="#3AD84D" stroke="#3AD84D" stroke-miterlimit="10" width="8.864" height="6.064"/>
		<polygon fill="#3AD84D" stroke="#3AD84D" stroke-miterlimit="10" points="605.816,380.625 597.354,377.994 599.15,372.203 
			601.093,372.806 601.484,375.33 603.877,376.095 605.763,374.258 607.615,374.833 		"/>
		
			<rect x="596.184" y="379.162" transform="matrix(0.9549 0.2968 -0.2968 0.9549 140.5651 -161.0276)" fill="#8307EF" stroke="#8307EF" stroke-miterlimit="10" width="8.864" height="6.53"/>
	</g>
	<g>
		
			<rect x="602.063" y="365.003" transform="matrix(0.7952 0.6063 -0.6063 0.7952 347.3221 -292.3549)" fill="#3AD84D" stroke="#3AD84D" stroke-miterlimit="10" width="8.864" height="6.065"/>
		<polygon fill="#3AD84D" stroke="#3AD84D" stroke-miterlimit="10" points="615.817,363.121 608.771,357.747 612.446,352.924 
			614.064,354.156 613.564,356.662 615.551,358.201 617.952,357.122 619.495,358.298 		"/>
		
			<rect x="605.882" y="359.765" transform="matrix(0.7951 0.6065 -0.6065 0.7951 345.2286 -295.7597)" fill="#8307EF" stroke="#8307EF" stroke-miterlimit="10" width="8.864" height="6.53"/>
	</g>
	<g>
		
			<rect x="616.083" y="348.711" transform="matrix(0.5633 0.8263 -0.8263 0.5633 561.6169 -359.0963)" fill="#3AD84D" stroke="#3AD84D" stroke-miterlimit="10" width="8.864" height="6.064"/>
		<polygon fill="#3AD84D" stroke="#3AD84D" stroke-miterlimit="10" points="630.912,350.019 625.92,342.696 630.929,339.278 
			632.075,340.958 630.811,343.179 632.21,345.266 634.829,344.999 635.923,346.602 		"/>
		
			<rect x="621.286" y="344.932" transform="matrix(0.5633 0.8263 -0.8263 0.5633 560.9591 -364.9446)" fill="#8307EF" stroke="#8307EF" stroke-miterlimit="10" width="8.864" height="6.53"/>
	</g>
	<g>
		
			<rect x="633.819" y="337.388" transform="matrix(0.0335 0.9994 -0.9994 0.0335 957.1043 -308.874)" fill="#3AD84D" stroke="#3AD84D" stroke-miterlimit="10" width="8.864" height="6.064"/>
		<polygon fill="#3AD84D" stroke="#3AD84D" stroke-miterlimit="10" points="647.957,344.528 647.659,335.671 653.72,335.466 
			653.789,337.498 651.532,338.697 651.597,341.209 653.952,342.386 654.018,344.324 		"/>
		
			<rect x="640.113" y="336.944" transform="matrix(0.0335 0.9994 -0.9994 0.0335 962.9738 -315.369)" fill="#8307EF" stroke="#8307EF" stroke-miterlimit="10" width="8.863" height="6.53"/>
	</g>
	<g>
		
			<rect x="656.888" y="337.126" transform="matrix(-0.2797 0.9601 -0.9601 -0.2797 1172.8777 -199.6194)" fill="#3AD84D" stroke="#3AD84D" stroke-miterlimit="10" width="8.865" height="6.065"/>
		<polygon fill="#3AD84D" stroke="#3AD84D" stroke-miterlimit="10" points="669.261,347.088 671.739,338.579 677.562,340.273 
			676.995,342.227 674.477,342.662 673.755,345.068 675.625,346.921 675.084,348.784 		"/>
		
			<rect x="662.933" y="338.656" transform="matrix(-0.2798 0.96 -0.96 -0.2798 1182.3792 -203.0983)" fill="#8307EF" stroke="#8307EF" stroke-miterlimit="10" width="8.864" height="6.529"/>
	</g>
	<g>
		
			<rect x="676.474" y="343.846" transform="matrix(-0.7527 0.6584 -0.6584 -0.7527 1421.7925 159.6741)" fill="#3AD84D" stroke="#3AD84D" stroke-miterlimit="10" width="8.864" height="6.065"/>
		<polygon fill="#3AD84D" stroke="#3AD84D" stroke-miterlimit="10" points="683.866,356.993 690.536,351.159 694.53,355.722 
			693.001,357.062 690.644,356.073 688.74,357.712 689.318,360.28 687.859,361.558 		"/>
		
			<rect x="680.62" y="348.354" transform="matrix(-0.7527 0.6583 -0.6583 -0.7527 1432.1937 165.315)" fill="#8307EF" stroke="#8307EF" stroke-miterlimit="10" width="8.863" height="6.53"/>
	</g>
	<g>
		<path fill="#41F75B" stroke="#41F75B" stroke-miterlimit="10" d="M589.634,480.386c5.053-6.944,11.503-10.86,14.409-8.746
			c2.904,2.113,1.164,9.457-3.889,16.4c-2.707,3.72-5.552,7.76-8.3,9.28c-0.994,0.551-2.622,0.757-3.538,0.695
			c-1.283-0.084-2.716,0.62-3.502,0.048c-0.828-0.601-1.288-2.27-1.402-3.615c-0.074-0.887-0.405-2.18-0.201-3.223
			C583.818,488.146,586.935,484.095,589.634,480.386z"/>
		<path fill="#41F75B" stroke="#3AD84D" stroke-width="0.5" stroke-miterlimit="10" d="M592.83,495.91c0,0-4.301-1.979-1.664-5.911
			C591.166,489.999,589.824,493.856,592.83,495.91z"/>
		<path fill="#41F75B" stroke="#3AD84D" stroke-width="0.5" stroke-miterlimit="10" d="M584.027,489.505
			c0,0,3.206,3.483,6.135-0.236C590.162,489.269,586.905,491.733,584.027,489.505z"/>
		<g>
			
				<ellipse transform="matrix(-0.8086 -0.5884 0.5884 -0.8086 786.1604 1236.3767)" fill="#FFFFFF" stroke="#FFFFFF" stroke-miterlimit="10" cx="594.185" cy="490.314" rx="2.159" ry="3.925"/>
		</g>
		<g>
			
				<ellipse transform="matrix(-0.8085 -0.5885 0.5885 -0.8085 778.7721 1226.345)" fill="#FFFFFF" stroke="#FFFFFF" stroke-miterlimit="10" cx="588.904" cy="486.472" rx="2.159" ry="3.925"/>
		</g>
		
			<ellipse transform="matrix(-0.8086 -0.5883 0.5883 -0.8086 786.6387 1236.1973)" stroke="#000000" stroke-miterlimit="10" cx="594.368" cy="490.164" rx="0.933" ry="1.751"/>
		
			<ellipse transform="matrix(-0.8086 -0.5883 0.5883 -0.8086 779.3493 1226.1406)" stroke="#000000" stroke-miterlimit="10" cx="589.087" cy="486.321" rx="0.933" ry="1.751"/>
		<path fill="#3AD84D" stroke="#3AD84D" stroke-width="0.25" stroke-miterlimit="10" d="M603.638,476.956
			c0,0-1.726,0.186-1.948-1.419C601.689,475.537,602.062,476.674,603.638,476.956z"/>
		<path fill="#3AD84D" stroke="#3AD84D" stroke-width="0.25" stroke-miterlimit="10" d="M599.048,473.615
			c0,0,0.354,1.701,1.951,1.42C600.999,475.035,599.802,475.03,599.048,473.615z"/>
	</g>
</g>
<g id="Bomb">
	<circle fill="#0B063A" stroke="#2E2D35" stroke-miterlimit="10" cx="305.333" cy="179.167" r="37.667"/>
	<path fill="#FFFFFF" stroke="#FFFFFF" stroke-miterlimit="10" d="M313.167,154.715c0,0,9.59,2.469,12.363,8.785H332
		c0,0-1.618-8.539-12.479-13.333L313.167,154.715z"/>
	<g>
		<g>
			<path d="M304.632,140.741c-0.558-6.801-5.126-10.504-8.743-15.823c-6.596-9.701,4.526-13.577,11.319-17.393
				c4.163-2.338,5.921-5.321,5.706-10.085c-0.202-4.466-0.98-7.768,1.981-11.56c2.571-3.292,6.905-5.347,10.399-7.486
				c1.117-0.684-0.514-1.242-1.256-0.787c-5.5,3.368-11.939,6.575-13.449,13.398c-0.764,3.457,0.83,7.027,0.155,10.558
				c-0.81,4.237-6.598,6.16-9.972,7.842c-4.885,2.436-9.527,5.431-8.768,11.496c0.404,3.225,2.995,6.217,4.982,8.595
				c3.011,3.603,5.318,6.948,5.713,11.763C302.767,142.067,304.704,141.616,304.632,140.741L304.632,140.741z"/>
		</g>
	</g>
	<line fill="none" stroke="#E81010" stroke-width="3" stroke-miterlimit="10" x1="324.5" y1="85" x2="324.5" y2="100"/>
	<line fill="none" stroke="#E55E13" stroke-width="2" stroke-miterlimit="10" x1="329.479" y1="96.641" x2="336.521" y2="115.359"/>
	<line fill="none" stroke="#E55E13" stroke-width="2" stroke-miterlimit="10" x1="308.409" y1="46.709" x2="319.591" y2="63.291"/>
	<line fill="none" stroke="#FCEE21" stroke-miterlimit="10" x1="324.5" y1="35" x2="324.5" y2="55"/>
	<line fill="none" stroke="#FCEE21" stroke-miterlimit="10" x1="324.5" y1="104" x2="324.5" y2="124"/>
	<line fill="none" stroke="#FCEE21" stroke-miterlimit="10" x1="344.429" y1="99.929" x2="358.571" y2="114.071"/>
	<line fill="none" stroke="#FCEE21" stroke-miterlimit="10" x1="351" y1="81.5" x2="371" y2="81.5"/>
	<line fill="none" stroke="#FCEE21" stroke-miterlimit="10" x1="360.571" y1="47.929" x2="346.429" y2="62.071"/>
	<line fill="none" stroke="#FCEE21" stroke-miterlimit="10" x1="292.429" y1="47.929" x2="306.571" y2="62.071"/>
	<line fill="none" stroke="#FCEE21" stroke-miterlimit="10" x1="280" y1="81.5" x2="300" y2="81.5"/>
	<line fill="none" stroke="#FCEE21" stroke-miterlimit="10" x1="306.18" y1="104.558" x2="292.82" y2="119.442"/>
	<line fill="none" stroke="#E55E13" stroke-width="2" stroke-miterlimit="10" x1="342.05" y1="46.368" x2="331.95" y2="63.631"/>
	<line fill="none" stroke="#E55E13" stroke-width="2" stroke-miterlimit="10" x1="318.478" y1="97.312" x2="313.521" y2="116.688"/>
	<line fill="none" stroke="#E55E13" stroke-width="2" stroke-miterlimit="10" x1="336.574" y1="76.34" x2="355.425" y2="69.66"/>
	<line fill="none" stroke="#E55E13" stroke-width="2" stroke-miterlimit="10" x1="293.895" y1="95.134" x2="312.105" y2="86.866"/>
	<path fill="none" stroke="#E55E13" stroke-width="2" stroke-miterlimit="10" d="M294,96"/>
	<path fill="none" stroke="#E55E13" stroke-width="2" stroke-miterlimit="10" d="M294,76"/>
	<line fill="none" stroke="#E55E13" stroke-width="2" stroke-miterlimit="10" x1="293.352" y1="71.369" x2="312.648" y2="76.631"/>
	<line fill="none" stroke="#E55E13" stroke-width="2" stroke-miterlimit="10" x1="338.968" y1="85.708" x2="357.032" y2="94.293"/>
	<line fill="none" stroke="#E81010" stroke-width="3" stroke-miterlimit="10" x1="324.5" y1="59" x2="324.5" y2="74"/>
	<line fill="none" stroke="#E81010" stroke-width="3" stroke-miterlimit="10" x1="346" y1="81.5" x2="331" y2="81.5"/>
	<line fill="none" stroke="#E81010" stroke-width="3" stroke-miterlimit="10" x1="318" y1="81.5" x2="303" y2="81.5"/>
	<line fill="none" stroke="#E81010" stroke-width="3" stroke-miterlimit="10" x1="342.804" y1="63.197" x2="332.197" y2="73.804"/>
	<line fill="none" stroke="#E81010" stroke-width="3" stroke-miterlimit="10" x1="318.804" y1="88.197" x2="308.197" y2="98.804"/>
	<line fill="none" stroke="#E81010" stroke-width="3" stroke-miterlimit="10" x1="308.196" y1="63.197" x2="318.804" y2="73.804"/>
	<line fill="none" stroke="#E81010" stroke-width="3" stroke-miterlimit="10" x1="331.196" y1="87.197" x2="341.804" y2="97.804"/>
</g>
<g id="Tail">
	<path fill="#41F75B" stroke="#41F75B" stroke-miterlimit="10" d="M161.31,90.5c0,1.628-0.523,3-1.167,3h-12.447
		c-0.645,0-1.167-1.372-1.167-3l0,0c0-1.627,0.522-3,1.167-3h12.447C160.787,87.5,161.31,88.873,161.31,90.5L161.31,90.5z"/>
	<path fill="#41F75B" stroke="#41F75B" stroke-miterlimit="10" d="M159.752,86c0,0.813-0.521,1.5-1.166,1.5h-8.557
		c-0.645,0-1.167-0.687-1.167-1.5l0,0c0-0.813,0.522-1.5,1.167-1.5h8.557C159.231,84.5,159.752,85.188,159.752,86L159.752,86z"/>
	<path fill="#41F75B" stroke="#41F75B" stroke-miterlimit="10" d="M158.197,83c0,1.625-0.521,1.5-1.167,1.5h-5.445
		c-0.645,0-1.167,0.125-1.167-1.5l0,0c0-1.625,0.522-1.5,1.167-1.5h5.445C157.676,81.5,158.197,81.375,158.197,83L158.197,83z"/>
	<path fill="#41F75B" stroke="#41F75B" stroke-miterlimit="10" d="M156.5,78.141c0,0.677-0.294,3.359-0.831,3.359h-2.722
		c-0.538,0-0.447-2.682-0.447-3.359v-0.489c0-0.678-0.091-2.152,0.447-2.152h2.722c0.537,0,0.831,1.475,0.831,2.152V78.141z"/>
	<path fill="#41F75B" stroke="#41F75B" stroke-miterlimit="10" d="M155.5,74.488c0,1.526-0.941,1.012-1.546,1.012h-0.142
		c-0.605,0-1.312,0.515-1.312-1.012v-0.357c0-1.525,0.707-2.631,1.312-2.631h0.142c0.605,0,1.546,1.105,1.546,2.631V74.488z"/>
	<path fill="#41F75B" stroke="#41F75B" stroke-miterlimit="10" d="M163.5,97.784c0,1.78-1.294,1.716-2.004,1.716h-15.988
		c-0.709,0-1.007,0.064-1.007-1.716v-1.307c0-1.78,0.298-2.977,1.007-2.977h15.988c0.71,0,2.004,1.197,2.004,2.977V97.784z"/>
	<path fill="#41F75B" stroke="#41F75B" stroke-miterlimit="10" d="M163.5,104.914c0,1.651,0.588,3.586-0.344,3.586h-18.797
		c-0.931,0-1.859-1.935-1.859-3.586v-0.856c0-1.652,0.928-4.558,1.859-4.558h18.797c0.932,0,0.344,2.906,0.344,4.558V104.914z"/>
</g>
<g id="Mid_Segment">
	<rect x="143.5" y="138.5" fill="#3AD84D" stroke="#3AD84D" stroke-miterlimit="10" width="19" height="13"/>
	<polygon fill="#3AD84D" stroke="#3AD84D" stroke-miterlimit="10" points="162.5,124.5 143.5,124.5 143.5,111.5 147.858,111.5 
		150.264,116.419 155.65,116.462 158.342,111.5 162.5,111.5 	"/>
	<rect x="143.5" y="124.5" fill="#8307EF" stroke="#8307EF" stroke-miterlimit="10" width="19" height="14"/>
</g>
<g id="Snakes_Head">
	<path fill="#41F75B" stroke="#41F75B" stroke-miterlimit="10" d="M166.374,190.891c0,18.41-6.244,33.333-13.945,33.333
		c-7.702,0-13.946-14.924-13.946-33.333c0-9.864-0.166-20.455,2.684-26.558c1.029-2.204,3.589-4.616,5.256-5.667
		c2.331-1.47,3.924-4.5,6.009-4.5c2.194,0,5.096,2.311,6.991,4.5c1.249,1.443,3.451,3.267,4.411,5.333
		C166.667,170.102,166.374,181.057,166.374,190.891z"/>
	<path fill="#41F75B" stroke="#3AD84D" stroke-width="0.5" stroke-miterlimit="10" d="M141.254,171.011c0,0,9.95-1.994,10.337,8.146
		C151.591,179.157,149.054,170.778,141.254,171.011z"/>
	<path fill="#41F75B" stroke="#3AD84D" stroke-width="0.5" stroke-miterlimit="10" d="M164.591,171.011c0,0-9.95-1.994-10.337,8.146
		C154.254,179.157,156.791,170.778,164.591,171.011z"/>
	<g>
		<ellipse fill="#FFFFFF" stroke="#FFFFFF" stroke-miterlimit="10" cx="145.962" cy="182.419" rx="4.629" ry="8.415"/>
	</g>
	<g>
		<ellipse fill="#FFFFFF" stroke="#FFFFFF" stroke-miterlimit="10" cx="159.962" cy="182.419" rx="4.629" ry="8.415"/>
	</g>
	<ellipse stroke="#000000" stroke-miterlimit="10" cx="145.833" cy="182.912" rx="2" ry="3.754"/>
	<ellipse stroke="#000000" stroke-miterlimit="10" cx="159.833" cy="182.912" rx="2" ry="3.754"/>
	<path fill="#3AD84D" stroke="#3AD84D" stroke-width="0.25" stroke-miterlimit="10" d="M146.422,217.5c0,0,2.759-2.5,5.168,0
		C151.591,217.5,149.511,216,146.422,217.5z"/>
	<path fill="#3AD84D" stroke="#3AD84D" stroke-width="0.25" stroke-miterlimit="10" d="M158.591,217.5c0,0-2.759-2.5-5.168,0
		C153.423,217.5,155.502,216,158.591,217.5z"/>
</g>
</svg>
